<svg width="158" height="129" viewBox="0 0 158 129" fill="none" xmlns="http://www.w3.org/2000/svg">
<path d="M156.508 61.3446L85.5047 4.28025L81.5641 1.02452C80.0775 -0.204301 77.9216 -0.204301 76.4353 1.02452L55.9463 17.9537V10.7959C55.9463 8.5899 54.1482 6.80134 51.9317 6.80134H36.6257C34.4088 6.80134 32.6111 8.59025 32.6111 10.7959V37.1645L1.47663 62.4374C-0.240718 63.8321 -0.49788 66.3479 0.904179 68.0576C1.69821 69.0264 2.85262 69.5272 4.01689 69.5272C4.90921 69.5272 5.80716 69.2324 6.55434 68.6282L18.6998 58.7702V124.903C18.6998 127.109 20.4971 128.897 22.7143 128.897H65.6176C67.8352 128.897 69.6329 127.108 69.6329 124.903V93.9099H88.3669V124.903C88.3669 127.109 90.165 128.897 92.3822 128.897H135.286C137.503 128.897 139.3 127.108 139.3 124.903V57.7864L151.461 67.5595C152.204 68.1561 153.097 68.447 153.983 68.447C155.153 68.447 156.316 67.9398 157.108 66.9626C158.502 65.2459 158.233 62.7308 156.508 61.3446ZM40.6409 14.7905H47.9161V24.3112L40.6409 30.1701V14.7905ZM131.271 52.4789V120.907H96.3978V89.9143C96.3978 87.7083 94.5998 85.9201 92.3829 85.9201H65.618C63.4004 85.9201 61.6035 87.709 61.6035 89.9143V120.907H26.7299V52.4789L42.3389 39.5815C42.3389 39.5815 78.8868 9.78648 79.12 9.38972L131.271 52.4789Z" fill="#BC87FF"/>
</svg>
