<svg width="171" height="65" viewBox="0 0 171 65" fill="none" xmlns="http://www.w3.org/2000/svg">
<path d="M76.5587 59.5404C75.5545 59.5404 74.6478 59.321 73.8385 58.8822C73.0391 58.4434 72.4053 57.8377 71.9374 57.0651C71.4791 56.2924 71.25 55.4244 71.25 54.461C71.25 53.4976 71.4791 52.6295 71.9374 51.8569C72.4053 51.0843 73.0391 50.4785 73.8385 50.0398C74.6478 49.601 75.5545 49.3816 76.5587 49.3816C77.2997 49.3816 77.9822 49.5008 78.6061 49.7393C79.2301 49.9682 79.7615 50.3116 80.2002 50.7695L79.7322 51.2416C78.9133 50.4499 77.8652 50.0541 76.588 50.0541C75.73 50.0541 74.95 50.2448 74.248 50.6264C73.5461 51.0079 72.9952 51.5373 72.5955 52.2146C72.1957 52.8823 71.9959 53.6311 71.9959 54.461C71.9959 55.2909 72.1957 56.0444 72.5955 56.7217C72.9952 57.3894 73.5461 57.914 74.248 58.2956C74.95 58.6771 75.73 58.8679 76.588 58.8679C77.8554 58.8679 78.9035 58.4673 79.7322 57.666L80.2002 58.1382C79.7615 58.596 79.2252 58.9442 78.5915 59.1827C77.9675 59.4212 77.2899 59.5404 76.5587 59.5404Z" fill="white"/>
<path d="M85.0907 59.5261C84.3693 59.5261 83.716 59.3639 83.1311 59.0396C82.5558 58.7153 82.1025 58.267 81.771 57.6946C81.4395 57.1128 81.2737 56.4594 81.2737 55.7344C81.2737 55.0095 81.4395 54.3608 81.771 53.7885C82.1025 53.2066 82.5558 52.7535 83.1311 52.4292C83.716 52.1049 84.3693 51.9427 85.0907 51.9427C85.8122 51.9427 86.4606 52.1049 87.0358 52.4292C87.6208 52.7535 88.079 53.2066 88.4105 53.7885C88.742 54.3608 88.9077 55.0095 88.9077 55.7344C88.9077 56.4594 88.742 57.1128 88.4105 57.6946C88.079 58.267 87.6208 58.7153 87.0358 59.0396C86.4606 59.3639 85.8122 59.5261 85.0907 59.5261ZM85.0907 58.8822C85.6757 58.8822 86.1973 58.7487 86.6556 58.4816C87.1236 58.2145 87.4892 57.8425 87.7524 57.3655C88.0254 56.8886 88.1619 56.3449 88.1619 55.7344C88.1619 55.1239 88.0254 54.5802 87.7524 54.1033C87.4892 53.6263 87.1236 53.2543 86.6556 52.9872C86.1973 52.7202 85.6757 52.5866 85.0907 52.5866C84.5058 52.5866 83.9793 52.7202 83.5113 52.9872C83.0531 53.2543 82.6874 53.6263 82.4145 54.1033C82.1512 54.5802 82.0196 55.1239 82.0196 55.7344C82.0196 56.3449 82.1512 56.8886 82.4145 57.3655C82.6874 57.8425 83.0531 58.2145 83.5113 58.4816C83.9793 58.7487 84.5058 58.8822 85.0907 58.8822Z" fill="white"/>
<path d="M97.962 48.8522V59.4688H97.2454V57.7089C96.9432 58.2908 96.5191 58.7391 95.9731 59.0539C95.4271 59.3687 94.808 59.5261 94.1158 59.5261C93.4041 59.5261 92.7606 59.3639 92.1854 59.0396C91.6101 58.7153 91.1568 58.267 90.8253 57.6946C90.5035 57.1223 90.3427 56.4689 90.3427 55.7344C90.3427 54.9999 90.5035 54.3465 90.8253 53.7742C91.1568 53.1923 91.6101 52.744 92.1854 52.4292C92.7606 52.1049 93.4041 51.9427 94.1158 51.9427C94.7983 51.9427 95.4076 52.1001 95.9439 52.4149C96.4898 52.7297 96.9188 53.1685 97.2308 53.7313V48.8522H97.962ZM94.1597 58.8822C94.7446 58.8822 95.2663 58.7487 95.7245 58.4816C96.1925 58.2145 96.5581 57.8425 96.8213 57.3655C97.0943 56.8886 97.2308 56.3449 97.2308 55.7344C97.2308 55.1239 97.0943 54.5802 96.8213 54.1033C96.5581 53.6263 96.1925 53.2543 95.7245 52.9872C95.2663 52.7202 94.7446 52.5866 94.1597 52.5866C93.5747 52.5866 93.0482 52.7202 92.5802 52.9872C92.122 53.2543 91.7564 53.6263 91.4834 54.1033C91.2201 54.5802 91.0885 55.1239 91.0885 55.7344C91.0885 56.3449 91.2201 56.8886 91.4834 57.3655C91.7564 57.8425 92.122 58.2145 92.5802 58.4816C93.0482 58.7487 93.5747 58.8822 94.1597 58.8822Z" fill="white"/>
<path d="M103.619 51.9427C104.565 51.9427 105.291 52.1812 105.798 52.6582C106.305 53.1256 106.558 53.8171 106.558 54.7328V59.4688H105.856V58.1382C105.613 58.577 105.257 58.9204 104.789 59.1684C104.321 59.4068 103.76 59.5261 103.107 59.5261C102.259 59.5261 101.586 59.3305 101.089 58.9394C100.601 58.5484 100.358 58.0333 100.358 57.3942C100.358 56.7741 100.582 56.2734 101.03 55.8918C101.489 55.5007 102.215 55.3052 103.209 55.3052H105.827V54.7042C105.827 54.0079 105.632 53.4785 105.242 53.116C104.862 52.7535 104.301 52.5723 103.56 52.5723C103.053 52.5723 102.566 52.6582 102.098 52.8299C101.64 53.0016 101.25 53.2305 100.928 53.5166L100.562 53.0016C100.943 52.6677 101.401 52.4101 101.937 52.2289C102.473 52.0381 103.034 51.9427 103.619 51.9427ZM103.209 58.9394C103.843 58.9394 104.379 58.7964 104.818 58.5102C105.267 58.224 105.603 57.8091 105.827 57.2654V55.8632H103.224C102.473 55.8632 101.927 55.9967 101.586 56.2638C101.255 56.5309 101.089 56.8981 101.089 57.3655C101.089 57.852 101.274 58.2383 101.645 58.5245C102.015 58.8011 102.537 58.9394 103.209 58.9394Z" fill="white"/>
<path d="M110.273 53.6311C110.507 53.0874 110.873 52.6725 111.37 52.3863C111.867 52.0906 112.472 51.9427 113.183 51.9427V52.6438L113.008 52.6295C112.16 52.6295 111.497 52.8919 111.019 53.4165C110.541 53.9316 110.302 54.6518 110.302 55.577V59.4688H109.571V52H110.273V53.6311Z" fill="white"/>
<path d="M121.576 55.9061H115.01C115.029 56.488 115.18 57.0078 115.463 57.4657C115.746 57.914 116.126 58.2622 116.604 58.5102C117.091 58.7582 117.637 58.8822 118.242 58.8822C118.739 58.8822 119.197 58.7964 119.617 58.6247C120.045 58.4434 120.401 58.1811 120.684 57.8377L121.108 58.3099C120.777 58.701 120.357 59.0014 119.85 59.2113C119.353 59.4212 118.812 59.5261 118.227 59.5261C117.467 59.5261 116.789 59.3639 116.194 59.0396C115.6 58.7153 115.132 58.267 114.79 57.6946C114.459 57.1223 114.293 56.4689 114.293 55.7344C114.293 55.0095 114.449 54.3608 114.761 53.7885C115.083 53.2066 115.522 52.7535 116.077 52.4292C116.633 52.1049 117.257 51.9427 117.949 51.9427C118.642 51.9427 119.261 52.1049 119.807 52.4292C120.362 52.744 120.796 53.1876 121.108 53.7599C121.43 54.3322 121.591 54.9808 121.591 55.7058L121.576 55.9061ZM117.949 52.5723C117.413 52.5723 116.93 52.6915 116.501 52.93C116.072 53.1589 115.726 53.488 115.463 53.9173C115.21 54.337 115.063 54.8139 115.024 55.3481H120.874C120.845 54.8139 120.699 54.337 120.435 53.9173C120.172 53.4976 119.826 53.1685 119.397 52.93C118.968 52.6915 118.486 52.5723 117.949 52.5723Z" fill="white"/>
<path d="M136.974 59.4688L136.959 53.4594L133.947 58.41H132.879L129.881 53.5882V59.4688H127.658V49.4531H129.618L133.45 55.6772L137.223 49.4531H139.168L139.197 59.4688H136.974Z" fill="white"/>
<path d="M149.391 51.771V59.4688H147.227V58.5531C146.925 58.887 146.564 59.1445 146.145 59.3258C145.726 59.4975 145.272 59.5833 144.785 59.5833C143.751 59.5833 142.932 59.2924 142.328 58.7105C141.723 58.1286 141.421 57.2654 141.421 56.1207V51.771H143.703V55.7916C143.703 57.0317 144.234 57.6517 145.297 57.6517C145.843 57.6517 146.281 57.48 146.613 57.1366C146.944 56.7837 147.11 56.2638 147.11 55.577V51.771H149.391Z" fill="white"/>
<path d="M154.152 59.5833C153.499 59.5833 152.86 59.507 152.236 59.3544C151.612 59.1922 151.115 58.9919 150.745 58.7534L151.505 57.1509C151.856 57.3703 152.28 57.5515 152.777 57.6946C153.275 57.8282 153.762 57.8949 154.24 57.8949C155.205 57.8949 155.688 57.6612 155.688 57.1938C155.688 56.9745 155.556 56.8171 155.293 56.7217C155.03 56.6263 154.625 56.5452 154.079 56.4784C153.435 56.383 152.904 56.2734 152.485 56.1493C152.066 56.0253 151.7 55.806 151.388 55.4912C151.086 55.1764 150.935 54.7281 150.935 54.1462C150.935 53.6597 151.076 53.2305 151.359 52.8585C151.651 52.4769 152.071 52.1812 152.617 51.9714C153.172 51.7615 153.825 51.6566 154.576 51.6566C155.132 51.6566 155.683 51.7186 156.229 51.8426C156.785 51.9571 157.243 52.1192 157.603 52.3291L156.843 53.9173C156.151 53.5357 155.395 53.3449 154.576 53.3449C154.089 53.3449 153.723 53.4117 153.479 53.5453C153.236 53.6788 153.114 53.8505 153.114 54.0604C153.114 54.2988 153.245 54.4658 153.509 54.5611C153.772 54.6565 154.191 54.7471 154.766 54.833C155.41 54.9379 155.936 55.0524 156.346 55.1764C156.755 55.2909 157.111 55.5055 157.413 55.8203C157.716 56.135 157.867 56.5738 157.867 57.1366C157.867 57.6136 157.72 58.038 157.428 58.41C157.135 58.7821 156.707 59.073 156.141 59.2828C155.585 59.4832 154.922 59.5833 154.152 59.5833Z" fill="white"/>
<path d="M159.274 51.771H161.556V59.4688H159.274V51.771ZM160.415 50.6979C159.996 50.6979 159.655 50.5787 159.391 50.3402C159.128 50.1018 158.996 49.8061 158.996 49.4531C158.996 49.1002 159.128 48.8045 159.391 48.566C159.655 48.3275 159.996 48.2083 160.415 48.2083C160.834 48.2083 161.176 48.3228 161.439 48.5517C161.702 48.7806 161.834 49.0668 161.834 49.4102C161.834 49.7822 161.702 50.0922 161.439 50.3402C161.176 50.5787 160.834 50.6979 160.415 50.6979Z" fill="white"/>
<path d="M167.475 59.5833C166.637 59.5833 165.881 59.4164 165.209 59.0825C164.546 58.7391 164.024 58.267 163.644 57.666C163.273 57.0651 163.088 56.383 163.088 55.6199C163.088 54.8568 163.273 54.1748 163.644 53.5739C164.024 52.9729 164.546 52.5055 165.209 52.1717C165.881 51.8283 166.637 51.6566 167.475 51.6566C168.304 51.6566 169.026 51.8283 169.64 52.1717C170.264 52.5055 170.717 52.9872 171 53.6168L169.23 54.5468C168.821 53.841 168.231 53.488 167.461 53.488C166.866 53.488 166.374 53.6788 165.984 54.0604C165.594 54.4419 165.399 54.9618 165.399 55.6199C165.399 56.2781 165.594 56.798 165.984 57.1795C166.374 57.5611 166.866 57.7519 167.461 57.7519C168.241 57.7519 168.831 57.3989 169.23 56.6931L171 57.6374C170.717 58.2479 170.264 58.7248 169.64 59.0682C169.026 59.4116 168.304 59.5833 167.475 59.5833Z" fill="white"/>
<path d="M2 26C0.895547 26 0 27.0126 0 28.2615V35.7385C0 36.9874 0.895547 38 2 38C3.10445 38 4 36.9877 4 35.7385V28.2615C4 27.0123 3.10445 26 2 26Z" fill="#BC87FF"/>
<path d="M10.5 26C9.11943 26 8 27.0126 8 28.2615V35.7385C8 36.9874 9.11903 38 10.5 38C11.881 38 13 36.9877 13 35.7385V28.2615C12.9996 27.0123 11.881 26 10.5 26Z" fill="#BC87FF"/>
<path d="M18.5 24C17.1194 24 16 24.939 16 26.0977V38.9023C16 40.0607 17.1194 41 18.5 41C19.8806 41 21 40.0607 21 38.9023V26.0977C21 24.939 19.8806 24 18.5 24Z" fill="#BC87FF"/>
<path d="M27 21C25.8955 21 25 21.9026 25 23.0157V41.9843C25 43.0974 25.8955 44 27 44C28.1045 44 29 43.0974 29 41.9843V23.0157C29 21.9023 28.1048 21 27 21Z" fill="#BC87FF"/>
<path d="M35 14C33.8955 14 33 14.9599 33 16.1437V48.8563C33 50.0401 33.8955 51 35 51C36.1045 51 37 50.0404 37 48.8563V16.1437C37 14.9599 36.1045 14 35 14Z" fill="#BC87FF"/>
<path d="M43 0C41.8955 0 41 0.93489 41 2.08862V62.9114C41 64.0648 41.8952 65 43 65C44.1048 65 45 64.0651 45 62.9114V2.08862C45 0.935228 44.1045 0 43 0Z" fill="#BC87FF"/>
<path d="M52 5C50.8955 5 50 5.92425 50 7.06409V56.9359C50 58.0758 50.8955 59 52 59C53.1045 59 54 58.0758 54 56.9359V7.06376C54 5.92358 53.1048 5 52 5Z" fill="#BC87FF"/>
<path d="M60 15C58.8955 15 58 15.9097 58 17.0317V45.9683C58 47.0903 58.8952 48 60 48C61.1048 48 62 47.0903 62 45.9683V17.0317C62 15.9097 61.1045 15 60 15Z" fill="#BC87FF"/>
<path d="M68 23C66.8955 23 66 23.8723 66 24.9482V41.0518C66 42.1276 66.8952 43 68 43C69.1048 43 70 42.1276 70 41.0518V24.9482C70 23.8723 69.1048 23 68 23Z" fill="#BC87FF"/>
<path d="M77 24C75.8955 24 75 24.9854 75 26.2014V38.7986C75 40.0143 75.8955 41 77 41C78.1045 41 79 40.0143 79 38.7986V26.2014C79 24.9857 78.1045 24 77 24Z" fill="#BC87FF"/>
<path d="M85 26C83.8956 26 83 27.0126 83 28.2615V35.7385C83 36.9874 83.8952 38 85 38C86.1045 38 87 36.9877 87 35.7385V28.2615C86.9997 27.0123 86.1045 26 85 26Z" fill="#BC87FF"/>
<path d="M93 26C91.8956 26 91 27.0126 91 28.2615V35.7385C91 36.9874 91.8952 38 93 38C94.1045 38 95 36.9877 95 35.7385V28.2615C95 27.0123 94.1045 26 93 26Z" fill="#BC87FF"/>
</svg>
