<svg width="131" height="132" viewBox="0 0 131 132" fill="none" xmlns="http://www.w3.org/2000/svg">
<path d="M99.4801 64.1827L51.4467 31.1827C50.7764 30.7251 49.9118 30.6745 49.1957 31.0551C48.4818 31.4357 48.0342 32.1837 48.0342 32.9999V98.9999C48.0342 99.8161 48.4818 100.564 49.1979 100.945C49.5167 101.116 49.8682 101.2 50.2175 101.2C50.6476 101.2 51.0777 101.07 51.4467 100.817L99.4801 67.8171C100.076 67.4079 100.434 66.7281 100.434 65.9999C100.434 65.2717 100.076 64.5919 99.4801 64.1827ZM52.4008 94.8353V37.1645L94.3754 65.9999L52.4008 94.8353Z" fill="#BC87FF"/>
<path d="M65.5 0C29.3833 0 0 29.6076 0 66C0 102.392 29.3833 132 65.5 132C101.617 132 131 102.392 131 66C131 29.6076 101.617 0 65.5 0ZM65.5 127.6C31.7915 127.6 4.36667 99.9658 4.36667 66C4.36667 32.0342 31.7915 4.4 65.5 4.4C99.2085 4.4 126.633 32.0342 126.633 66C126.633 99.9658 99.2085 127.6 65.5 127.6Z" fill="#BC87FF"/>
</svg>
