<svg width="131" height="131" viewBox="0 0 131 131" fill="none" xmlns="http://www.w3.org/2000/svg">
<g clip-path="url(#clip0)">
<path d="M62.0154 16.9383C59.8867 15.7331 57.3627 15.7724 55.2689 17.0344C55.1685 17.0934 55.0724 17.1632 54.9851 17.2375L25.4009 42.265H2.18333C0.97595 42.265 0 43.241 0 44.4483V85.9317C0 86.5125 0.22925 87.067 0.639717 87.4753C1.05018 87.8836 1.60257 88.115 2.18333 88.115L25.3485 88.1041L54.9174 115.265C55.0266 115.365 55.1445 115.453 55.2689 115.527C56.3431 116.175 57.533 116.501 58.7229 116.501C59.8517 116.498 60.9783 116.208 62.0154 115.623C64.1965 114.391 65.5 112.143 65.5 109.606V22.9556C65.5 20.4208 64.1965 18.1719 62.0154 16.9383ZM61.1333 109.606C61.1333 110.547 60.6595 111.374 59.8692 111.822C59.5308 112.012 58.6727 112.378 57.6859 111.878L28.3833 84.9601V75.0128C28.3833 73.8054 27.4074 72.8295 26.2 72.8295C24.9926 72.8295 24.0167 73.8054 24.0167 75.0128V83.7374L4.36667 83.7462V46.6295H24.0167V55.3628C24.0167 56.5702 24.9926 57.5462 26.2 57.5462C27.4074 57.5462 28.3833 56.5702 28.3833 55.3628V45.4592L57.6509 20.7002C58.6574 20.1719 59.5308 20.5474 59.8692 20.7395C60.6595 21.1871 61.1333 22.0146 61.1333 22.9556V109.606Z" fill="#BC87FF"/>
<path d="M113.59 65.1898C113.59 46.9655 101.983 30.7804 84.7064 24.9138C83.5667 24.5274 82.3244 25.1387 81.9357 26.2806C81.5493 27.4203 82.1606 28.6626 83.3025 29.0512C98.8063 34.3152 109.223 48.8388 109.223 65.192C109.223 81.5298 98.826 96.0555 83.3527 101.335C82.213 101.723 81.6017 102.964 81.9925 104.108C82.3025 105.014 83.1497 105.586 84.0579 105.586C84.2915 105.586 84.5295 105.549 84.7631 105.468C102.007 99.5838 113.59 83.3988 113.59 65.1898Z" fill="#BC87FF"/>
<path d="M97.0559 13.9165C95.9468 13.4515 94.6652 13.9624 94.1914 15.0737C93.722 16.185 94.2394 17.4666 95.3507 17.9382C114.354 26.0013 126.634 44.5509 126.634 65.1899C126.634 86.5364 113.765 105.32 93.8508 113.036C92.7264 113.472 92.1674 114.736 92.6041 115.861C92.9382 116.725 93.7656 117.256 94.6411 117.256C94.9031 117.256 95.1695 117.21 95.4293 117.11C117.038 108.732 131 88.3529 131 65.1899C131 42.7933 117.675 22.6673 97.0559 13.9165Z" fill="#BC87FF"/>
<path d="M93.9402 65.1901C93.9402 52.1512 85.1872 40.514 72.6549 36.8897C71.4977 36.56 70.2882 37.2216 69.9519 38.3831C69.6179 39.5403 70.2838 40.752 71.4453 41.0861C82.1196 44.1711 89.5757 54.0835 89.5757 65.1901C89.5757 76.2967 82.1196 86.209 71.4453 89.2941C70.286 89.6281 69.6179 90.8399 69.9519 91.997C70.2292 92.9533 71.1004 93.5756 72.0501 93.5756C72.251 93.5756 72.454 93.5472 72.6549 93.4904C85.1894 89.8639 93.9402 78.2268 93.9402 65.1901Z" fill="#BC87FF"/>
</g>
<defs>
<clipPath id="clip0">
<rect width="131" height="131" fill="white"/>
</clipPath>
</defs>
</svg>
